<svg width="240.99999999999997" height="181.99999999999997" xmlns="http://www.w3.org/2000/svg">
 <!-- Created with Method Draw - http://github.com/duopixel/Method-Draw/ -->
 <g>
  <title>Layer 1</title>
  <path id="svg_1" d="m102.347909,94.782161c-5.210094,-7.310762 -11.584271,-13.229587 -17.978025,-17.370034c-7.460507,4.243982 -16.547,6.828254 -26.453044,6.828254c-9.925494,0 -19.025059,-2.589307 -26.472412,-6.828254c-6.393739,4.140448 -12.77443,10.059273 -17.99731,17.370034c-12.124131,16.973493 -13.457489,34.383967 -2.985637,38.898271c4.689737,2.03355 9.606858,0.517859 14.686801,-3.284101c-0.891091,3.854948 -1.411471,8.033213 -1.411471,12.40356c0,19.416337 9.711009,35.14438 21.678771,35.14438c7.213373,0 10.784207,-5.726934 12.501258,-14.495304c1.710718,8.76837 5.281522,14.495304 12.468752,14.495304c11.987429,0 21.698528,-15.728042 21.698528,-35.14438c0,-4.370353 -0.520552,-8.548612 -1.431011,-12.40356c5.092835,3.80196 10.003488,5.317651 14.706243,3.284101c10.465406,-4.514304 9.112359,-21.924784 -3.011435,-38.898271l-0.000007,0zm-44.443871,-17.165431c20.137171,0 36.469468,-12.686478 36.469468,-28.3362s-16.332297,-28.336235 -36.469468,-28.336235c-20.144021,0 -36.489217,12.689002 -36.489217,28.336235s16.345196,28.3362 36.489217,28.3362z" stroke-width="5" stroke="#000" fill="#fff"/>
  <path stroke="#000" id="svg_2" d="m226.766492,97.081015c-5.572368,-7.258604 -12.397746,-13.133306 -19.2406,-17.240279c-7.984443,4.212378 -17.709151,6.774794 -28.321556,6.774794c-10.619188,0 -20.357896,-2.57004 -28.331977,-6.774794c-6.842845,4.106966 -13.668164,9.981675 -19.261519,17.240279c-12.97217,16.844062 -14.406131,34.124277 -3.202165,38.607376c5.019008,2.018324 10.285183,0.511517 15.721829,-3.259504c-0.957178,3.823632 -1.52453,7.970712 -1.52453,12.310845c0,19.271167 10.393024,34.881483 23.205128,34.881483c7.71645,0 11.541669,-5.686438 13.375817,-14.389274c1.834225,8.702837 5.655874,14.389274 13.355111,14.389274c12.829376,0 23.222366,-15.610315 23.222366,-34.881483c0,-4.340133 -0.556837,-8.487213 -1.531364,-12.310845c5.454029,3.771021 10.709673,5.277828 15.739076,3.259504c11.221502,-4.483105 9.770005,-21.763313 -3.205616,-38.607376zm-47.57256,-17.037061c21.562233,0 39.041658,-12.594235 39.041658,-28.124421s-17.479425,-28.12433 -39.041658,-28.12433c-21.558765,0 -39.052165,12.591608 -39.052165,28.12433s17.493391,28.124421 39.052165,28.124421zm26.671716,-57.728076c11.266637,2.988722 4.48643,-4.766415 4.48643,-10.064314s6.95424,-11.776788 -4.48643,-9.141561c-12.00803,2.773001 -21.743227,4.297467 -21.743227,9.602873s9.735205,6.413719 21.743227,9.603002zm-26.598606,-3.773458c7.135192,0 3.149923,-2.602585 3.149923,-5.809435c0,-3.209318 3.995707,-5.80442 -3.149923,-5.80442s-3.411023,2.602603 -3.411023,5.80442c0,3.214339 -3.724279,5.809435 3.411023,5.809435zm-26.751788,3.773458c12.008039,-3.181819 21.743151,-4.300057 21.743151,-9.603002s-9.735112,-6.829873 -21.743151,-9.602873c-11.440687,-2.642741 -4.489966,3.838585 -4.489966,9.141561s-6.787135,13.047997 4.489966,10.064314z" stroke-width="5" fill="#fff"/>
 </g>
</svg>