<svg width="580" height="400" xmlns="http://www.w3.org/2000/svg">
 <!-- Created with Method Draw - http://github.com/duopixel/Method-Draw/ -->
 <g>
  <title>Layer 1</title>
  <text font-style="italic" font-weight="bold" stroke="#000" transform="matrix(1.5893322580662657,0,0,1.4661341281837676,-35.50105096093646,-77.31706788037287) " xml:space="preserve" text-anchor="start" font-family="'Times New Roman', Times, serif" font-size="101" id="svg_1" y="161.574858" x="104.009966" stroke-width="0" fill="#000000">Cool</text>
  <path stroke="#000" id="svg_4" d="m122.555883,193.633291c-6.309471,-7.950862 -14.028658,-14.387916 -21.771552,-18.890885c-9.034741,4.615568 -20.038567,7.426108 -32.034877,7.426108c-12.019864,0 -23.039519,-2.816016 -32.058331,-7.426108c-7.742876,4.502969 -15.46995,10.940022 -21.794906,18.890885c-14.682432,18.459623 -16.297141,37.394488 -3.615634,42.304046c5.679314,2.211599 11.633992,0.563201 17.785849,-3.571643c-1.07912,4.192472 -1.709305,8.736568 -1.709305,13.489566c0,21.116353 11.76012,38.22148 26.253189,38.22148c8.73546,0 13.059773,-6.228361 15.139137,-15.764454c2.071695,9.536093 6.395971,15.764454 15.099772,15.764454c14.516885,0 26.277114,-17.105126 26.277114,-38.22148c0,-4.753004 -0.630393,-9.297094 -1.732967,-13.489566c6.167469,4.134844 12.114314,5.783243 17.809394,3.571643c12.673702,-4.909558 11.035149,-23.844429 -3.646875,-42.304046l-0.000009,0zm-53.821932,-18.668367c24.386297,0 44.164857,-13.797255 44.164857,-30.817204s-19.77856,-30.817242 -44.164857,-30.817242c-24.394593,0 -44.188774,13.799999 -44.188774,30.817242s19.794181,30.817204 44.188774,30.817204z" stroke-width="5" fill="#ffffff"/>
  <path stroke="#000" id="svg_7" d="m565.263396,213.171083c-6.01816,-7.543576 -13.389571,-13.648919 -20.779856,-17.917131c-8.623202,4.377756 -19.12589,7.040772 -30.587292,7.040772c-11.468728,0 -21.986536,-2.670939 -30.598547,-7.040772c-7.390276,4.268206 -14.761622,10.373555 -20.802448,17.917131c-14.009949,17.50536 -15.558627,35.463995 -3.45834,40.123099c5.42053,2.097563 11.108002,0.531599 16.979582,-3.387472c-1.033753,3.973748 -1.646493,8.283642 -1.646493,12.794168c0,20.027752 11.224471,36.250928 25.061548,36.250928c8.333769,0 12.465007,-5.909687 14.445888,-14.954197c1.980964,9.04451 6.108346,14.954197 14.423525,14.954197c13.855731,0 25.080165,-16.223176 25.080165,-36.250928c0,-4.510527 -0.601385,-8.820421 -1.653874,-12.794168c5.890354,3.919071 11.566451,5.485035 16.998208,3.387472c12.119226,-4.659111 10.551609,-22.61774 -3.462067,-40.123099zm-51.378384,-17.705935c23.28722,0 42.165007,-13.088684 42.165007,-29.228585s-18.877786,-29.22849 -42.165007,-29.22849c-23.283475,0 -42.176353,13.085954 -42.176353,29.22849s18.892869,29.228585 42.176353,29.228585zm28.805464,-59.994478c12.167973,3.106059 4.845346,-4.953544 4.845346,-10.459439s7.510582,-12.239145 -4.845346,-9.500458c-12.968678,2.881868 -23.482694,4.466185 -23.482694,9.979882s10.514026,6.665521 23.482694,9.980015zm-28.726506,-3.921604c7.70601,0 3.401918,-2.704762 3.401918,-6.037513c0,-3.335316 4.315365,-6.032301 -3.401918,-6.032301s-3.683906,2.704781 -3.683906,6.032301c0,3.340534 -4.022223,6.037513 3.683906,6.037513zm-28.891942,3.921604c12.968687,-3.306737 23.482611,-4.468877 23.482611,-9.980015s-10.513925,-7.098013 -23.482611,-9.979882c-12.355946,-2.746495 -4.849165,3.989288 -4.849165,9.500458s-7.330109,13.560261 4.849165,10.459439z" stroke-opacity="null" stroke-width="5" fill="#ffffff"/>
  <text font-style="italic" font-weight="bold" stroke="#000" transform="matrix(1.3557311275042339,0,0,1.5583509139753873,-109.88141211264247,-89.37010454452786) " xml:space="preserve" text-anchor="start" font-family="'Times New Roman', Times, serif" font-size="101" id="svg_8" y="254.399454" x="199.468446" fill-opacity="null" stroke-opacity="null" stroke-width="0" fill="#000000">baby</text>
 </g>
</svg>